# xmcd CD database file
#
# Track frame offsets:
#	150
#	11819
#	29968
#	34969
#	40892
#	47782
#	53276
#	58207
#	63413
#	76237
#	104289
#	116443
#	130745
#	135972
#	146513
#	153658
#	159174
#	165994
#	176710
#	183111
#	188845
#	201272
#	213327
#	220600
#	234155
#	247997
#	262929
#
# Disc length: 3719 seconds
#
# Revision: 0
# Processed by: cddbd v1.5.2PL0 Copyright (c) Steve Scherf et al.
# Submitted via: CDex 1.70beta2
#
DISCID=6c0e851b
DTITLE=Philharmonic Brass Dresden - Blech-Reiz die Zweite
DYEAR=2002
DGENRE=Brass Ensemble
TTITLE0=J.S.Bach Allegro assai  aus dem 2. Brandenburgischen Konzert
TTITLE1=J.S.Bach Polacca und Trio aus dem 2. Brandenburgischen Konzert
TTITLE2=Giles Farnaby The Old Spagnoletta
TTITLE3=Giles Farnaby His Rest
TTITLE4=Giles Farnaby Tell me Daphne
TTITLE5=Giles Farnaby A Toye
TTITLE6=Giles Farnaby His Dream
TTITLE7=Giles Farnaby The New Sa-hoo
TTITLE8=W.A.Mozart Duett Papageno-Papagena
TTITLE9=C.M.von Weber Aufforderung zum Tanz
TTITLE10=Johannes Brahms Ungarischer Tanz No. 5
TTITLE11=Edvard Grieg Suite for Brass-Quintett  Sarabande
TTITLE12=Edvard Grieg Suite for Brass-Quintett Lullaby
TTITLE13=Edvard Grieg Suite for Brass-Quintett Wedding
TTITLE14=Edvard Grieg Suite for Brass-Quintett Ballade
TTITLE15=Edvard Grieg Suite for Brass Quintett Bridal Song
TTITLE16=Claude Debussy Le petit Negre
TTITLE17=Claude Debussy La fille aux cheveux de fin 
TTITLE18=Joseph Horovitz Music Hall Suite Soubrette Song
TTITLE19=Joseph Horovitz Music Hall Suite Tric cyclists
TTITLE20=Joseph Horovitz Music Hall Suite Adagio Team 
TTITLE21=Joseph Horovitz Music Hall Suite Soft shoe shuffle
TTITLE22=Joseph Horovitz Music Hall Suite Les Girls
TTITLE23=Isaac Albeniz Tango
TTITLE24=Fats Waller Ain't Misbehavin'
TTITLE25=Traditional American Amazing Grace
TTITLE26=Traditional La Virgen De La Macarena
EXTD=YEAR: 2002
EXTT0=
EXTT1=
EXTT2=
EXTT3=
EXTT4=
EXTT5=
EXTT6=
EXTT7=
EXTT8=
EXTT9=
EXTT10=
EXTT11=
EXTT12=
EXTT13=
EXTT14=
EXTT15=
EXTT16=
EXTT17=
EXTT18=
EXTT19=
EXTT20=
EXTT21=
EXTT22=
EXTT23=
EXTT24=
EXTT25=
EXTT26=
PLAYORDER=
